# xmcd CD database file
#
# Track frame offsets:
#	150
#	28734
#	44127
#	72650
#	103256
#	115259
#	145009
#	173300
#	192500
#	210674
#	238558
#	268308
#	289536
#
# Disc length: 4137 seconds
#
# Revision: 1
# Processed by: cddbd v1.5.1PL0 Copyright (c) Steve Scherf et al.
# Submitted via: CDex 1.51
#
DISCID=ca10270d
DTITLE=The Back yard, Tub, Jug and Washboard Band - Dreissig Jahre
DYEAR=1999
DGENRE=Jazz
TTITLE0=01 Take your burden to the Loard
TTITLE1=02 Original Charlston strut
TTITLE2=03 Really the blues
TTITLE3=04 Once or twice
TTITLE4=05 Thats y plenty
TTITLE5=06 Corrine, Corrina
TTITLE6=07  Shanty in old shanty town
TTITLE7=08 Let  me call your sweethard
TTITLE8=09 Wipe em off
TTITLE9=10 Blues when it rains
TTITLE10=11 What if I do
TTITLE11=12 After you've gone
TTITLE12=13 Idle hour special
EXTD=YEAR: 1999
EXTT0=
EXTT1=
EXTT2=
EXTT3=
EXTT4=
EXTT5=
EXTT6=
EXTT7=
EXTT8=
EXTT9=
EXTT10=
EXTT11=
EXTT12=
PLAYORDER=
